PathFileType	4	(X/Y/Z)	/Users/itak/Documents/Research/Walk-IL/dataset/trc/00450_00167.trc
DataRate	CameraRate	NumFrames	NumMarkers	Units	OrigDataRate	OrigDataStartFrame	OrigNumFrames
100.000000	100.000000	4	53	mm	100.000000	327	436
Frame#	Time	RPSI			LPSI			L3			STRN			T10			C7			CLAV			RBAK			LBAK			LSHO			LUPA			LAEL			LAOL			LWTS			LWPS			LFRA			LIFD			LHPS			LHTS			RSHO			RUPA			RAEL			RAOL			RWTS			RWPS			RFRA			RIFD			RHTS			RHPS			RBHD			LFHD			RFHD			LBHD			LHIP			RHIP			RASI			LASI			LKNE			LTHI			LANK			LTIP			LTOE			LMT1			LMT5			LHEE			RKNE			RTHI			RANK			RTIP			RTOE			RMT1			RMT5			RHEE			
		X1	Y1	Z1	X2	Y2	Z2	X3	Y3	Z3	X4	Y4	Z4	X5	Y5	Z5	X6	Y6	Z6	X7	Y7	Z7	X8	Y8	Z8	X9	Y9	Z9	X10	Y10	Z10	X11	Y11	Z11	X12	Y12	Z12	X13	Y13	Z13	X14	Y14	Z14	X15	Y15	Z15	X16	Y16	Z16	X17	Y17	Z17	X18	Y18	Z18	X19	Y19	Z19	X20	Y20	Z20	X21	Y21	Z21	X22	Y22	Z22	X23	Y23	Z23	X24	Y24	Z24	X25	Y25	Z25	X26	Y26	Z26	X27	Y27	Z27	X28	Y28	Z28	X29	Y29	Z29	X30	Y30	Z30	X31	Y31	Z31	X32	Y32	Z32	X33	Y33	Z33	X34	Y34	Z34	X35	Y35	Z35	X36	Y36	Z36	X37	Y37	Z37	X38	Y38	Z38	X39	Y39	Z39	X40	Y40	Z40	X41	Y41	Z41	X42	Y42	Z42	X43	Y43	Z43	X44	Y44	Z44	X45	Y45	Z45	X46	Y46	Z46	X47	Y47	Z47	X48	Y48	Z48	X49	Y49	Z49	X50	Y50	Z50	X51	Y51	Z51	X52	Y52	Z52	X53	Y53	Z53	

328	3.27	953.9071044921875	947.6163330078125	1003.802368164062	1032.155517578125	951.0025024414062	886.1084594726562	991.9625244140625	1048.576049804688	971.3394165039062	1226.007202148438	1260.1796875	1094.605224609375	971.6375732421875	1171.278564453125	963.1256713867188	1012.965148925781	1443.730346679688	1002.022705078125	1189.553344726562	1371.941528320312	1069.8671875	920.3589477539062	1320.692749023438	1060.020874023438	1026.532470703125	1392.28125	902.383544921875	1149.83837890625	1421.010009765625	869.10791015625	1181.169921875	1309.41748046875	771.9105834960938	1234.910034179688	1110.131591796875	738.3656616210938	1141.537475585938	1068.149169921875	763.517333984375	1347.869018554688	1004.421081542969	881.8544921875	1358.300903320312	953.3580322265625	829.0632934570312	1291.524291992188	1046.594970703125	770.1181640625	1438.45654296875	903.7556762695312	969.9848022460938	1410.401611328125	906.8328247070312	873.3541259765625	1412.788940429688	962.9560546875	919.59130859375	1002.455749511719	1419.648681640625	1174.777954101562	953.1150512695312	1360.921875	1235.857543945312	928.3192138671875	1083.41845703125	1309.634155273438	899.1218872070312	1057.615112304688	1253.778564453125	1056.29052734375	896.8540649414062	1343.438232421875	973.214599609375	880.7974853515625	1364.594482421875	932.851806640625	1026.7900390625	1327.053100585938	1058.193115234375	743.4928588867188	1388.336059570312	1067.2294921875	803.8544311523438	1385.51953125	991.8999633789062	800.1459350585938	1391.521850585938	1033.274658203125	1643.9931640625	1094.259643554688	1225.936157226562	1668.379150390625	1024.322875976562	1161.033569335938	1672.931884765625	1136.935302734375	1106.831298828125	1640.834350585938	932.9385375976562	1221.765502929688	863.4324340820312	864.5851440429688	983.174560546875	846.4868774414062	1182.900024414062	1098.662475585938	897.5151977539062	1187.845947265625	1249.740112304688	906.69140625	981.3705444335938	1290.634765625	443.978759765625	914.489501953125	1303.001098632812	604.1755981445312	910.1282348632812	1129.046508789062	59.3620491027832	781.609619140625	1249.323974609375	295.52197265625	864.541015625	1277.9931640625	47.86874771118164	966.103759765625	1201.41552734375	60.82076644897461	951.89208984375	1257.720581054688	48.00722503662109	855.8548583984375	1055.661010742188	62.65517807006836	796.2071533203125	1066.80517578125	460.7929992675781	1192.124755859375	1027.841552734375	722.7295532226562	1231.654663085938	1027.65771484375	31.26250839233398	1154.079467773438	1063.208374023438	313.374267578125	1199.965576171875	1241.0185546875	33.36009979248047	1224.552734375	1202.410278320312	43.14384078979492	1163.059326171875	1128.3095703125	33.05017471313477	1245.681030273438	996.3048706054688	24.04901123046875	1080.611083984375	
329	3.28	956.4972534179688	949.6409301757812	1004.840209960938	1035.19970703125	953.0690307617188	887.5541381835938	994.5814819335938	1050.112060546875	973.00146484375	1227.597412109375	1261.209228515625	1097.86376953125	974.2850341796875	1172.1806640625	965.29931640625	1015.0498046875	1444.699829101562	1003.793029785156	1191.24267578125	1372.953125	1072.891479492188	922.1708374023438	1321.52197265625	1061.433471679688	1029.336181640625	1393.14892578125	904.4962768554688	1152.920043945312	1421.677368164062	871.8180541992188	1184.221313476562	1310.021606445312	774.5946655273438	1235.270751953125	1108.907958984375	740.3773193359375	1140.904907226562	1069.699340820312	765.3139038085938	1345.385375976562	993.7286987304688	878.76611328125	1352.803588867188	943.822998046875	824.3466186523438	1289.593383789062	1042.078491210938	769.4666137695312	1432.718872070312	886.9378662109375	962.4557495117188	1403.55615234375	893.8778686523438	866.4702758789062	1408.958740234375	948.53125	914.1141967773438	1003.134765625	1420.822875976562	1176.333618164062	953.394775390625	1362.243286132812	1237.179565429688	930.6829223632812	1084.494873046875	1311.77490234375	902.3840942382812	1057.428955078125	1256.235717773438	1066.087646484375	904.1339111328125	1346.932495117188	983.8742065429688	883.3170776367188	1367.890502929688	937.3070068359375	1028.079467773438	1329.606079101562	1077.576538085938	751.7490844726562	1392.077758789062	1082.515747070312	812.279052734375	1389.07080078125	1007.455505371094	803.7744750976562	1394.75341796875	1035.102905273438	1644.984008789062	1097.0126953125	1227.832153320312	1669.372436523438	1027.289428710938	1162.857055664062	1673.764526367188	1139.83935546875	1108.778564453125	1642.101196289062	935.7349243164062	1224.418823242188	864.8609619140625	866.6441650390625	984.314697265625	847.6048583984375	1183.480224609375	1100.001953125	898.1034545898438	1189.356811523438	1252.246459960938	907.9561157226562	983.8264770507812	1291.71875	445.08447265625	915.7254638671875	1304.238525390625	605.1392211914062	911.8240356445312	1139.66943359375	55.88042831420898	787.0113525390625	1253.94873046875	295.4871520996094	867.3871459960938	1289.01318359375	49.99330520629883	971.4133911132812	1212.09521484375	60.45751571655273	957.2172241210938	1268.684936523438	48.95440673828125	861.1214599609375	1066.165649414062	57.06781005859375	801.6937866210938	1064.580444335938	461.0662231445312	1190.992065429688	1028.86865234375	723.7832641601562	1232.127319335938	1027.440185546875	30.94876289367676	1154.03125	1061.272094726562	313.7156982421875	1199.1015625	1240.7958984375	33.52020645141602	1224.477661132812	1202.274169921875	43.227783203125	1163.10546875	1128.220336914062	33.03507614135742	1245.71630859375	996.2879028320312	23.81472015380859	1080.540405273438	
330	3.29	959.0397338867188	951.4926147460938	1005.8232421875	1038.171264648438	954.9531860351562	888.9030151367188	997.1681518554688	1051.513549804688	974.4577026367188	1229.16748046875	1261.993041992188	1101.008911132812	976.8695068359375	1172.83056640625	967.225830078125	1017.118408203125	1445.410400390625	1005.455505371094	1192.894897460938	1373.705200195312	1075.792724609375	923.9874267578125	1322.08984375	1062.66650390625	1032.105712890625	1393.750854492188	906.46923828125	1155.973266601562	1422.1416015625	874.4254150390625	1187.3291015625	1310.431884765625	777.1914672851562	1235.895141601562	1107.711181640625	742.3980712890625	1140.623901367188	1071.146118164062	766.9498901367188	1342.498779296875	983.385986328125	875.6429443359375	1347.21044921875	934.98046875	819.5858154296875	1287.786987304688	1037.872924804688	768.8492431640625	1426.184448242188	870.6041870117188	954.7477416992188	1396.378540039062	881.7179565429688	859.4781494140625	1404.46142578125	934.54248046875	908.6444702148438	1003.82373046875	1421.736206054688	1177.770874023438	953.6202392578125	1363.2744140625	1238.334106445312	932.8915405273438	1085.38818359375	1313.65185546875	905.447265625	1057.0546875	1258.497436523438	1075.505004882812	911.393798828125	1349.886596679688	994.4400024414062	885.9000244140625	1370.929077148438	941.61669921875	1029.269165039062	1331.908325195312	1096.626220703125	760.2836303710938	1394.604858398438	1097.456176757812	820.8320922851562	1391.719116210938	1022.992980957031	807.6322631835938	1397.483276367188	1036.879272460938	1645.738403320312	1099.548950195312	1229.661376953125	1670.144775390625	1030.007934570312	1164.619873046875	1674.447509765625	1142.4931640625	1110.643188476562	1643.014770507812	938.3222045898438	1226.904296875	866.021240234375	868.541015625	985.37939453125	848.5692138671875	1183.998291015625	1101.32861328125	898.5468139648438	1190.722045898438	1254.747680664062	908.93994140625	986.0906982421875	1292.620483398438	445.9435119628906	916.7590942382812	1305.238647460938	605.807861328125	913.2686157226562	1150.5009765625	52.12981033325195	792.5254516601562	1258.5166015625	295.2843933105469	870.081298828125	1299.992431640625	51.92294692993164	976.9038696289062	1222.811279296875	59.98487854003906	962.6983642578125	1279.704956054688	49.48651123046875	866.6017456054688	1076.931518554688	51.35688781738281	807.2466430664062	1062.55322265625	461.2297973632812	1189.939453125	1029.819702148438	724.6829223632812	1232.537719726562	1027.250732421875	30.66012573242188	1153.967895507812	1059.528564453125	313.9532470703125	1198.260375976562	1240.587280273438	33.67143249511719	1224.409301757812	1202.19482421875	43.32004547119141	1163.162475585938	1128.157348632812	33.03536987304688	1245.732543945312	996.28173828125	23.5304012298584	1080.466796875	
331	3.3	961.4965209960938	953.0960083007812	1006.755981445312	1041.032104492188	956.585205078125	890.1708984375	999.7081909179688	1052.747802734375	975.7199096679688	1230.705688476562	1262.503295898438	1104.00146484375	979.3521728515625	1173.220092773438	968.88720703125	1019.163024902344	1445.859252929688	1007.031982421875	1194.509643554688	1374.1826171875	1078.5556640625	925.7920532226562	1322.382934570312	1063.751342773438	1034.828735351562	1394.102416992188	908.304443359375	1158.974731445312	1422.411376953125	876.9197387695312	1190.462524414062	1310.655639648438	779.7081909179688	1236.752563476562	1106.489379882812	744.4561157226562	1140.65283203125	1072.466186523438	768.5338134765625	1339.279541015625	973.3556518554688	872.4886474609375	1341.581176757812	926.761962890625	814.7892456054688	1286.11865234375	1033.902099609375	768.273193359375	1418.930297851562	854.7379150390625	946.8536987304688	1388.935424804688	870.2902221679688	852.3803100585938	1399.386962890625	920.9600219726562	903.1719360351562	1004.554260253906	1422.372436523438	1179.107543945312	953.8425903320312	1363.984375	1239.353759765625	935.0322875976562	1086.072631835938	1315.292114257812	908.37841796875	1056.438842773438	1260.588989257812	1084.505859375	918.4570922851562	1352.265502929688	1004.861633300781	888.5525512695312	1373.709350585938	945.8429565429688	1030.332153320312	1333.97802734375	1115.05712890625	768.9865112304688	1396.112182617188	1111.886596679688	829.39404296875	1393.591796875	1038.324340820312	811.744873046875	1399.8173828125	1038.6005859375	1646.227661132812	1101.870849609375	1231.429077148438	1670.6875	1032.502807617188	1166.310913085938	1674.94580078125	1144.914306640625	1112.43896484375	1643.574584960938	940.7207641601562	1229.231323242188	866.90283203125	870.2880859375	986.355712890625	849.325439453125	1184.487426757812	1102.63671875	898.8090209960938	1191.952514648438	1257.197265625	909.6053466796875	988.16259765625	1293.407470703125	446.5492248535156	917.6597290039062	1306.059326171875	606.1802978515625	914.472412109375	1161.328369140625	48.26041030883789	798.0408325195312	1263.00537109375	294.9561157226562	872.64892578125	1310.659545898438	53.59178161621094	982.5009765625	1233.310424804688	59.44561004638672	968.2313232421875	1290.539916992188	49.6009407043457	872.2244873046875	1087.733520507812	45.75576019287109	812.7308349609375	1060.822998046875	461.2733154296875	1189.014526367188	1030.681640625	725.3741455078125	1232.9189453125	1027.094360351562	30.41080474853516	1153.879028320312	1058.059204101562	314.0782165527344	1197.481323242188	1240.402709960938	33.80451202392578	1224.352783203125	1202.167114257812	43.42094039916992	1163.224487304688	1128.119384765625	33.04944610595703	1245.727905273438	996.2930908203125	23.20585823059082	1080.38720703125	
